<svg width="400" height="400" viewBox="0 0 400 400" fill="none" xmlns="http://www.w3.org/2000/svg">
<rect width="400" height="400" rx="50" fill="#F74627"/>
<path d="M92.5688 276.853V205.63H107.259V241.289L103.184 239.855L131.427 205.63H149.813L121.854 239.664L122.707 229.148L150.382 276.853H133.227L115.978 246.738L107.259 257.35V276.853H92.5688Z" fill="#080708"/>
<path d="M174.738 278C169.62 278 164.945 276.821 160.711 274.463C156.541 272.105 153.193 268.886 150.665 264.807C148.201 260.664 146.969 255.98 146.969 250.754C146.969 245.464 148.201 240.779 150.665 236.7C153.193 232.621 156.541 229.403 160.711 227.045C164.945 224.686 169.62 223.507 174.738 223.507C179.856 223.507 184.5 224.686 188.67 227.045C192.84 229.403 196.157 232.621 198.621 236.7C201.149 240.779 202.412 245.464 202.412 250.754C202.412 255.98 201.149 260.664 198.621 264.807C196.157 268.886 192.84 272.105 188.67 274.463C184.5 276.821 179.856 278 174.738 278ZM174.738 265.094C177.329 265.094 179.572 264.488 181.467 263.277C183.426 262.067 184.942 260.378 186.016 258.211C187.154 256.044 187.722 253.558 187.722 250.754C187.722 247.949 187.154 245.496 186.016 243.392C184.942 241.225 183.426 239.537 181.467 238.326C179.572 237.051 177.329 236.414 174.738 236.414C172.148 236.414 169.873 237.051 167.914 238.326C165.956 239.537 164.408 241.225 163.27 243.392C162.196 245.496 161.659 247.949 161.659 250.754C161.659 253.558 162.196 256.044 163.27 258.211C164.408 260.378 165.956 262.067 167.914 263.277C169.873 264.488 172.148 265.094 174.738 265.094Z" fill="#080708"/>
<path d="M230.785 278C225.667 278 220.992 276.821 216.758 274.463C212.588 272.105 209.239 268.886 206.712 264.807C204.248 260.664 203.016 255.98 203.016 250.754C203.016 245.464 204.248 240.779 206.712 236.7C209.239 232.621 212.588 229.403 216.758 227.045C220.992 224.686 225.667 223.507 230.785 223.507C235.903 223.507 240.547 224.686 244.717 227.045C248.887 229.403 252.204 232.621 254.668 236.7C257.196 240.779 258.459 245.464 258.459 250.754C258.459 255.98 257.196 260.664 254.668 264.807C252.204 268.886 248.887 272.105 244.717 274.463C240.547 276.821 235.903 278 230.785 278ZM230.785 265.094C233.376 265.094 235.619 264.488 237.514 263.277C239.473 262.067 240.989 260.378 242.063 258.211C243.201 256.044 243.769 253.558 243.769 250.754C243.769 247.949 243.201 245.496 242.063 243.392C240.989 241.225 239.473 239.537 237.514 238.326C235.619 237.051 233.376 236.414 230.785 236.414C228.194 236.414 225.92 237.051 223.961 238.326C222.003 239.537 220.455 241.225 219.317 243.392C218.243 245.496 217.706 247.949 217.706 250.754C217.706 253.558 218.243 256.044 219.317 258.211C220.455 260.378 222.003 262.067 223.961 263.277C225.92 264.488 228.194 265.094 230.785 265.094Z" fill="#080708"/>
<path d="M261.148 276.853V204.483H275.364V250.849L270.057 249.128L292.898 224.655H310.431L291.665 245.687L310.336 276.853H294.224L278.586 250.371L286.832 248.268L271.004 265.667L275.364 257.35V276.853H261.148Z" fill="#080708"/>
<path d="M97.0518 186.427V123.021H110.206V154.767L106.557 153.49L131.847 123.021H148.312L123.276 153.32L124.04 143.958L148.821 186.427H133.46L118.014 159.618L110.206 169.065V186.427H97.0518Z" fill="white"/>
<path d="M170.631 187.448C166.048 187.448 161.861 186.399 158.071 184.299C154.336 182.2 151.338 179.335 149.075 175.703C146.868 172.015 145.765 167.845 145.765 163.192C145.765 158.483 146.868 154.313 149.075 150.681C151.338 147.05 154.336 144.185 158.071 142.086C161.861 139.986 166.048 138.937 170.631 138.937C175.214 138.937 179.372 139.986 183.106 142.086C186.841 144.185 189.811 147.05 192.017 150.681C194.281 154.313 195.412 158.483 195.412 163.192C195.412 167.845 194.281 172.015 192.017 175.703C189.811 179.335 186.841 182.2 183.106 184.299C179.372 186.399 175.214 187.448 170.631 187.448ZM170.631 175.959C172.951 175.959 174.959 175.42 176.656 174.342C178.41 173.264 179.768 171.76 180.73 169.831C181.749 167.902 182.258 165.689 182.258 163.192C182.258 160.696 181.749 158.511 180.73 156.639C179.768 154.71 178.41 153.206 176.656 152.128C174.959 150.994 172.951 150.426 170.631 150.426C168.311 150.426 166.274 150.994 164.52 152.128C162.767 153.206 161.38 154.71 160.362 156.639C159.4 158.511 158.919 160.696 158.919 163.192C158.919 165.689 159.4 167.902 160.362 169.831C161.38 171.76 162.767 173.264 164.52 174.342C166.274 175.42 168.311 175.959 170.631 175.959Z" fill="white"/>
<path d="M220.14 187.448C215.217 187.448 210.946 186.37 207.325 184.214C203.704 182.001 200.903 179.051 198.923 175.363C196.943 171.675 195.953 167.59 195.953 163.107C195.953 158.455 196.971 154.313 199.008 150.681C201.101 147.05 203.902 144.185 207.41 142.086C210.917 139.986 214.878 138.937 219.291 138.937C222.969 138.937 226.222 139.532 229.051 140.724C231.88 141.859 234.256 143.476 236.18 145.575C238.16 147.674 239.659 150.114 240.677 152.894C241.696 155.618 242.205 158.597 242.205 161.831C242.205 162.739 242.149 163.646 242.035 164.554C241.979 165.405 241.837 166.143 241.611 166.767H206.9V157.405H234.397L228.372 161.831C228.938 159.391 228.909 157.235 228.287 155.362C227.665 153.433 226.561 151.93 224.977 150.852C223.449 149.717 221.554 149.15 219.291 149.15C217.084 149.15 215.189 149.689 213.605 150.767C212.021 151.845 210.833 153.433 210.04 155.533C209.248 157.632 208.937 160.185 209.107 163.192C208.881 165.802 209.192 168.1 210.04 170.086C210.889 172.072 212.19 173.632 213.944 174.767C215.698 175.845 217.82 176.384 220.309 176.384C222.573 176.384 224.496 175.93 226.08 175.022C227.721 174.115 228.994 172.866 229.899 171.278L240.083 176.129C239.178 178.398 237.735 180.384 235.755 182.086C233.832 183.789 231.54 185.122 228.881 186.087C226.222 186.994 223.308 187.448 220.14 187.448Z" fill="white"/>
<path d="M244.609 186.427V122H257.339V186.427H244.609Z" fill="white"/>
<path d="M283.883 187.448C278.961 187.448 274.689 186.37 271.068 184.214C267.447 182.001 264.646 179.051 262.666 175.363C260.686 171.675 259.696 167.59 259.696 163.107C259.696 158.455 260.714 154.313 262.751 150.681C264.844 147.05 267.645 144.185 271.153 142.086C274.661 139.986 278.621 138.937 283.034 138.937C286.712 138.937 289.965 139.532 292.794 140.724C295.623 141.859 297.999 143.476 299.923 145.575C301.903 147.674 303.402 150.114 304.421 152.894C305.439 155.618 305.948 158.597 305.948 161.831C305.948 162.739 305.892 163.646 305.779 164.554C305.722 165.405 305.581 166.143 305.354 166.767H270.644V157.405H298.141L292.115 161.831C292.681 159.391 292.652 157.235 292.03 155.362C291.408 153.433 290.304 151.93 288.72 150.852C287.193 149.717 285.297 149.15 283.034 149.15C280.828 149.15 278.932 149.689 277.348 150.767C275.764 151.845 274.576 153.433 273.784 155.533C272.992 157.632 272.68 160.185 272.85 163.192C272.624 165.802 272.935 168.1 273.784 170.086C274.632 172.072 275.934 173.632 277.688 174.767C279.441 175.845 281.563 176.384 284.053 176.384C286.316 176.384 288.239 175.93 289.824 175.022C291.464 174.115 292.737 172.866 293.643 171.278L303.827 176.129C302.921 178.398 301.479 180.384 299.498 182.086C297.575 183.789 295.283 185.122 292.624 186.087C289.965 186.994 287.051 187.448 283.883 187.448Z" fill="white"/>
</svg>
