<svg width="400" height="400" viewBox="0 0 400 400" fill="none" xmlns="http://www.w3.org/2000/svg">
<rect width="400" height="400" rx="50" fill="#F74627"/>
<path d="M80 285.72V206.28H96.3852V246.053L91.8396 244.454L123.341 206.28H143.849L112.665 244.241L113.616 232.511L144.484 285.72H125.35L106.111 252.131L96.3852 263.967V285.72H80Z" fill="#080708"/>
<path d="M171.65 287C165.942 287 160.727 285.685 156.005 283.055C151.354 280.424 147.619 276.834 144.8 272.285C142.051 267.664 140.677 262.439 140.677 256.61C140.677 250.71 142.051 245.485 144.8 240.935C147.619 236.385 151.354 232.795 156.005 230.165C160.727 227.535 165.942 226.22 171.65 226.22C177.359 226.22 182.539 227.535 187.19 230.165C191.841 232.795 195.541 236.385 198.289 240.935C201.108 245.485 202.518 250.71 202.518 256.61C202.518 262.439 201.108 267.664 198.289 272.285C195.541 276.834 191.841 280.424 187.19 283.055C182.539 285.685 177.359 287 171.65 287ZM171.65 272.605C174.54 272.605 177.042 271.929 179.156 270.579C181.34 269.228 183.032 267.344 184.23 264.927C185.498 262.51 186.133 259.738 186.133 256.61C186.133 253.482 185.498 250.745 184.23 248.399C183.032 245.982 181.34 244.098 179.156 242.748C177.042 241.326 174.54 240.615 171.65 240.615C168.761 240.615 166.224 241.326 164.039 242.748C161.854 244.098 160.128 245.982 158.859 248.399C157.661 250.745 157.062 253.482 157.062 256.61C157.062 259.738 157.661 262.51 158.859 264.927C160.128 267.344 161.854 269.228 164.039 270.579C166.224 271.929 168.761 272.605 171.65 272.605Z" fill="#080708"/>
<path d="M234.164 287C228.456 287 223.241 285.685 218.519 283.055C213.868 280.424 210.133 276.834 207.314 272.285C204.565 267.664 203.191 262.439 203.191 256.61C203.191 250.71 204.565 245.485 207.314 240.935C210.133 236.385 213.868 232.795 218.519 230.165C223.241 227.535 228.456 226.22 234.164 226.22C239.873 226.22 245.052 227.535 249.704 230.165C254.355 232.795 258.055 236.385 260.803 240.935C263.622 245.485 265.032 250.71 265.032 256.61C265.032 262.439 263.622 267.664 260.803 272.285C258.055 276.834 254.355 280.424 249.704 283.055C245.052 285.685 239.873 287 234.164 287ZM234.164 272.605C237.054 272.605 239.555 271.929 241.67 270.579C243.854 269.228 245.546 267.344 246.744 264.927C248.012 262.51 248.647 259.738 248.647 256.61C248.647 253.482 248.012 250.745 246.744 248.399C245.546 245.982 243.854 244.098 241.67 242.748C239.555 241.326 237.054 240.615 234.164 240.615C231.275 240.615 228.738 241.326 226.553 242.748C224.368 244.098 222.642 245.982 221.373 248.399C220.175 250.745 219.576 253.482 219.576 256.61C219.576 259.738 220.175 262.51 221.373 264.927C222.642 267.344 224.368 269.228 226.553 270.579C228.738 271.929 231.275 272.605 234.164 272.605Z" fill="#080708"/>
<path d="M268.03 285.72V205H283.887V256.717L277.967 254.797L303.444 227.499H323L302.069 250.958L322.894 285.72H304.923L287.481 256.183L296.678 253.837L279.024 273.244L283.887 263.967V285.72H268.03Z" fill="#080708"/>
<path d="M85 184.861V114.139H99.6722V149.547L95.6019 148.124L123.81 114.139H142.174L114.25 147.934L115.102 137.492L142.742 184.861H125.609L108.381 154.958L99.6722 165.495V184.861H85Z" fill="white"/>
<path d="M167.069 186C161.957 186 157.288 184.829 153.059 182.488C148.894 180.146 145.55 176.95 143.026 172.9C140.564 168.786 139.334 164.135 139.334 158.945C139.334 153.693 140.564 149.041 143.026 144.991C145.55 140.941 148.894 137.745 153.059 135.403C157.288 133.062 161.957 131.891 167.069 131.891C172.181 131.891 176.819 133.062 180.984 135.403C185.149 137.745 188.462 140.941 190.923 144.991C193.448 149.041 194.71 153.693 194.71 158.945C194.71 164.135 193.448 168.786 190.923 172.9C188.462 176.95 185.149 180.146 180.984 182.488C176.819 184.829 172.181 186 167.069 186ZM167.069 173.185C169.656 173.185 171.897 172.583 173.79 171.381C175.746 170.179 177.261 168.502 178.334 166.35C179.469 164.198 180.037 161.73 180.037 158.945C180.037 156.161 179.469 153.724 178.334 151.636C177.261 149.484 175.746 147.807 173.79 146.605C171.897 145.339 169.656 144.706 167.069 144.706C164.482 144.706 162.21 145.339 160.254 146.605C158.297 147.807 156.751 149.484 155.615 151.636C154.542 153.724 154.006 156.161 154.006 158.945C154.006 161.73 154.542 164.198 155.615 166.35C156.751 168.502 158.297 170.179 160.254 171.381C162.21 172.583 164.482 173.185 167.069 173.185Z" fill="white"/>
<path d="M222.29 186C216.8 186 212.036 184.798 207.997 182.393C203.958 179.925 200.834 176.634 198.625 172.52C196.417 168.407 195.312 163.85 195.312 158.85C195.312 153.661 196.448 149.041 198.72 144.991C201.055 140.941 204.179 137.745 208.091 135.403C212.004 133.062 216.421 131.891 221.344 131.891C225.446 131.891 229.074 132.555 232.23 133.884C235.385 135.15 238.035 136.954 240.181 139.295C242.39 141.637 244.062 144.358 245.198 147.459C246.334 150.497 246.902 153.819 246.902 157.427C246.902 158.439 246.839 159.452 246.712 160.464C246.649 161.414 246.492 162.236 246.239 162.932H207.523V152.49H238.193L231.472 157.427C232.103 154.705 232.072 152.3 231.378 150.212C230.683 148.06 229.453 146.383 227.686 145.181C225.982 143.915 223.868 143.282 221.344 143.282C218.883 143.282 216.769 143.883 215.002 145.086C213.235 146.288 211.909 148.06 211.026 150.402C210.142 152.743 209.795 155.591 209.985 158.945C209.732 161.857 210.079 164.42 211.026 166.635C211.972 168.85 213.424 170.59 215.38 171.856C217.336 173.058 219.703 173.659 222.48 173.659C225.004 173.659 227.15 173.153 228.917 172.14C230.747 171.128 232.166 169.736 233.176 167.964L244.535 173.375C243.526 175.906 241.916 178.121 239.708 180.02C237.562 181.918 235.006 183.405 232.04 184.481C229.074 185.494 225.824 186 222.29 186Z" fill="white"/>
<path d="M249.583 184.861V113H263.782V184.861H249.583Z" fill="white"/>
<path d="M293.389 186C287.898 186 283.134 184.798 279.095 182.393C275.056 179.925 271.932 176.634 269.724 172.52C267.515 168.407 266.411 163.85 266.411 158.85C266.411 153.661 267.546 149.041 269.818 144.991C272.153 140.941 275.277 137.745 279.19 135.403C283.102 133.062 287.52 131.891 292.442 131.891C296.544 131.891 300.172 132.555 303.328 133.884C306.483 135.15 309.134 136.954 311.279 139.295C313.488 141.637 315.16 144.358 316.296 147.459C317.432 150.497 318 153.819 318 157.427C318 158.439 317.937 159.452 317.811 160.464C317.748 161.414 317.59 162.236 317.337 162.932H278.622V152.49H309.291L302.57 157.427C303.202 154.705 303.17 152.3 302.476 150.212C301.782 148.06 300.551 146.383 298.784 145.181C297.08 143.915 294.966 143.282 292.442 143.282C289.981 143.282 287.867 143.883 286.1 145.086C284.333 146.288 283.008 148.06 282.124 150.402C281.241 152.743 280.893 155.591 281.083 158.945C280.83 161.857 281.177 164.42 282.124 166.635C283.071 168.85 284.522 170.59 286.478 171.856C288.435 173.058 290.801 173.659 293.578 173.659C296.102 173.659 298.248 173.153 300.015 172.14C301.845 171.128 303.265 169.736 304.274 167.964L315.634 173.375C314.624 175.906 313.015 178.121 310.806 180.02C308.66 181.918 306.104 183.405 303.138 184.481C300.172 185.494 296.922 186 293.389 186Z" fill="white"/>
</svg>
