<svg width="400" height="400" viewBox="0 0 400 400" fill="none" xmlns="http://www.w3.org/2000/svg">
<rect width="400" height="400" rx="50" fill="#F74627"/>
<path d="M104 267.49V203.55H117.283V235.563L113.598 234.276L139.137 203.55H155.763L130.481 234.104L131.252 224.663L156.277 267.49H140.765L125.168 240.455L117.283 249.982V267.49H104Z" fill="#080708"/>
<path d="M178.301 268.52C173.673 268.52 169.445 267.462 165.617 265.344C161.847 263.227 158.819 260.338 156.533 256.676C154.305 252.957 153.191 248.751 153.191 244.06C153.191 239.311 154.305 235.105 156.533 231.443C158.819 227.781 161.847 224.892 165.617 222.775C169.445 220.658 173.673 219.599 178.301 219.599C182.929 219.599 187.128 220.658 190.899 222.775C194.67 224.892 197.669 227.781 199.897 231.443C202.183 235.105 203.325 239.311 203.325 244.06C203.325 248.751 202.183 252.957 199.897 256.676C197.669 260.338 194.67 263.227 190.899 265.344C187.128 267.462 182.929 268.52 178.301 268.52ZM178.301 256.934C180.643 256.934 182.672 256.39 184.386 255.303C186.157 254.216 187.528 252.699 188.499 250.754C189.528 248.809 190.042 246.577 190.042 244.06C190.042 241.542 189.528 239.339 188.499 237.451C187.528 235.506 186.157 233.989 184.386 232.902C182.672 231.758 180.643 231.186 178.301 231.186C175.958 231.186 173.902 231.758 172.131 232.902C170.359 233.989 168.96 235.506 167.931 237.451C166.96 239.339 166.474 241.542 166.474 244.06C166.474 246.577 166.96 248.809 167.931 250.754C168.96 252.699 170.359 254.216 172.131 255.303C173.902 256.39 175.958 256.934 178.301 256.934Z" fill="#080708"/>
<path d="M228.981 268.52C224.353 268.52 220.125 267.462 216.297 265.344C212.527 263.227 209.498 260.338 207.213 256.676C204.985 252.957 203.871 248.751 203.871 244.06C203.871 239.311 204.985 235.105 207.213 231.443C209.498 227.781 212.527 224.892 216.297 222.775C220.125 220.658 224.353 219.599 228.981 219.599C233.609 219.599 237.808 220.658 241.579 222.775C245.349 224.892 248.349 227.781 250.577 231.443C252.862 235.105 254.005 239.311 254.005 244.06C254.005 248.751 252.862 252.957 250.577 256.676C248.349 260.338 245.349 263.227 241.579 265.344C237.808 267.462 233.609 268.52 228.981 268.52ZM228.981 256.934C231.323 256.934 233.352 256.39 235.066 255.303C236.837 254.216 238.208 252.699 239.179 250.754C240.207 248.809 240.722 246.577 240.722 244.06C240.722 241.542 240.207 239.339 239.179 237.451C238.208 235.506 236.837 233.989 235.066 232.902C233.352 231.758 231.323 231.186 228.981 231.186C226.638 231.186 224.582 231.758 222.81 232.902C221.039 233.989 219.64 235.506 218.611 237.451C217.64 239.339 217.154 241.542 217.154 244.06C217.154 246.577 217.64 248.809 218.611 250.754C219.64 252.699 221.039 254.216 222.81 255.303C224.582 256.39 226.638 256.934 228.981 256.934Z" fill="#080708"/>
<path d="M256.436 267.49V202.52H269.291V244.146L264.492 242.601L285.146 220.629H301L284.031 239.511L300.914 267.49H286.345L272.205 243.716L279.661 241.828L265.349 257.448L269.291 249.982V267.49H256.436Z" fill="#080708"/>
<path d="M104 188.56V128.96H116.4V158.8L112.96 157.6L136.8 128.96H152.32L128.72 157.44L129.44 148.64L152.8 188.56H138.32L123.76 163.36L116.4 172.24V188.56H104Z" fill="white"/>
<path d="M173.359 189.52C169.039 189.52 165.093 188.533 161.519 186.56C157.999 184.587 155.173 181.893 153.039 178.48C150.959 175.013 149.919 171.093 149.919 166.72C149.919 162.293 150.959 158.373 153.039 154.96C155.173 151.547 157.999 148.853 161.519 146.88C165.093 144.907 169.039 143.92 173.359 143.92C177.679 143.92 181.599 144.907 185.119 146.88C188.639 148.853 191.439 151.547 193.519 154.96C195.653 158.373 196.719 162.293 196.719 166.72C196.719 171.093 195.653 175.013 193.519 178.48C191.439 181.893 188.639 184.587 185.119 186.56C181.599 188.533 177.679 189.52 173.359 189.52ZM173.359 178.72C175.546 178.72 177.439 178.213 179.039 177.2C180.693 176.187 181.973 174.773 182.879 172.96C183.839 171.147 184.319 169.067 184.319 166.72C184.319 164.373 183.839 162.32 182.879 160.56C181.973 158.747 180.693 157.333 179.039 156.32C177.439 155.253 175.546 154.72 173.359 154.72C171.173 154.72 169.253 155.253 167.599 156.32C165.946 157.333 164.639 158.747 163.679 160.56C162.773 162.32 162.319 164.373 162.319 166.72C162.319 169.067 162.773 171.147 163.679 172.96C164.639 174.773 165.946 176.187 167.599 177.2C169.253 178.213 171.173 178.72 173.359 178.72Z" fill="white"/>
<path d="M220.029 189.52C215.389 189.52 211.362 188.507 207.949 186.48C204.535 184.4 201.895 181.627 200.029 178.16C198.162 174.693 197.229 170.853 197.229 166.64C197.229 162.267 198.189 158.373 200.109 154.96C202.082 151.547 204.722 148.853 208.029 146.88C211.335 144.907 215.069 143.92 219.229 143.92C222.695 143.92 225.762 144.48 228.429 145.6C231.095 146.667 233.335 148.187 235.149 150.16C237.015 152.133 238.429 154.427 239.389 157.04C240.349 159.6 240.829 162.4 240.829 165.44C240.829 166.293 240.775 167.147 240.669 168C240.615 168.8 240.482 169.493 240.269 170.08H207.549V161.28H233.469L227.789 165.44C228.322 163.147 228.295 161.12 227.709 159.36C227.122 157.547 226.082 156.133 224.589 155.12C223.149 154.053 221.362 153.52 219.229 153.52C217.149 153.52 215.362 154.027 213.869 155.04C212.375 156.053 211.255 157.547 210.509 159.52C209.762 161.493 209.469 163.893 209.629 166.72C209.415 169.173 209.709 171.333 210.509 173.2C211.309 175.067 212.535 176.533 214.189 177.6C215.842 178.613 217.842 179.12 220.189 179.12C222.322 179.12 224.135 178.693 225.629 177.84C227.175 176.987 228.375 175.813 229.229 174.32L238.829 178.88C237.975 181.013 236.615 182.88 234.749 184.48C232.935 186.08 230.775 187.333 228.269 188.24C225.762 189.093 223.015 189.52 220.029 189.52Z" fill="white"/>
<path d="M243.095 188.56V128H255.095V188.56H243.095Z" fill="white"/>
<path d="M280.116 189.52C275.476 189.52 271.45 188.507 268.036 186.48C264.623 184.4 261.983 181.627 260.116 178.16C258.25 174.693 257.316 170.853 257.316 166.64C257.316 162.267 258.276 158.373 260.196 154.96C262.17 151.547 264.81 148.853 268.116 146.88C271.423 144.907 275.156 143.92 279.316 143.92C282.783 143.92 285.85 144.48 288.516 145.6C291.183 146.667 293.423 148.187 295.236 150.16C297.103 152.133 298.516 154.427 299.476 157.04C300.436 159.6 300.916 162.4 300.916 165.44C300.916 166.293 300.863 167.147 300.756 168C300.703 168.8 300.57 169.493 300.356 170.08H267.636V161.28H293.556L287.876 165.44C288.41 163.147 288.383 161.12 287.796 159.36C287.21 157.547 286.17 156.133 284.676 155.12C283.236 154.053 281.45 153.52 279.316 153.52C277.236 153.52 275.45 154.027 273.956 155.04C272.463 156.053 271.343 157.547 270.596 159.52C269.85 161.493 269.556 163.893 269.716 166.72C269.503 169.173 269.796 171.333 270.596 173.2C271.396 175.067 272.623 176.533 274.276 177.6C275.93 178.613 277.93 179.12 280.276 179.12C282.41 179.12 284.223 178.693 285.716 177.84C287.263 176.987 288.463 175.813 289.316 174.32L298.916 178.88C298.063 181.013 296.703 182.88 294.836 184.48C293.023 186.08 290.863 187.333 288.356 188.24C285.85 189.093 283.103 189.52 280.116 189.52Z" fill="white"/>
</svg>
