<svg width="384" height="62" viewBox="0 0 384 62" fill="none" xmlns="http://www.w3.org/2000/svg">
<path d="M0.000214815 60.5601V0.960053H12.4002V30.8001L8.96022 29.6001L32.8002 0.960053H48.3202L24.7202 29.4401L25.4402 20.6401L48.8002 60.5601H34.3202L19.7602 35.3601L12.4002 44.2401V60.5601H0.000214815ZM69.3596 61.5201C65.0396 61.5201 61.0929 60.5334 57.5196 58.5601C53.9996 56.5867 51.1729 53.8934 49.0396 50.4801C46.9596 47.0134 45.9196 43.0934 45.9196 38.7201C45.9196 34.2934 46.9596 30.3734 49.0396 26.9601C51.1729 23.5467 53.9996 20.8534 57.5196 18.8801C61.0929 16.9067 65.0396 15.9201 69.3596 15.9201C73.6796 15.9201 77.5996 16.9067 81.1196 18.8801C84.6396 20.8534 87.4396 23.5467 89.5196 26.9601C91.6529 30.3734 92.7196 34.2934 92.7196 38.7201C92.7196 43.0934 91.6529 47.0134 89.5196 50.4801C87.4396 53.8934 84.6396 56.5867 81.1196 58.5601C77.5996 60.5334 73.6796 61.5201 69.3596 61.5201ZM69.3596 50.7201C71.5463 50.7201 73.4396 50.2134 75.0396 49.2001C76.6929 48.1867 77.9729 46.7734 78.8796 44.9601C79.8396 43.1467 80.3196 41.0667 80.3196 38.7201C80.3196 36.3734 79.8396 34.3201 78.8796 32.5601C77.9729 30.7467 76.6929 29.3334 75.0396 28.3201C73.4396 27.2534 71.5463 26.7201 69.3596 26.7201C67.1729 26.7201 65.2529 27.2534 63.5996 28.3201C61.9463 29.3334 60.6396 30.7467 59.6796 32.5601C58.7729 34.3201 58.3196 36.3734 58.3196 38.7201C58.3196 41.0667 58.7729 43.1467 59.6796 44.9601C60.6396 46.7734 61.9463 48.1867 63.5996 49.2001C65.2529 50.2134 67.1729 50.7201 69.3596 50.7201ZM116.029 61.5201C111.389 61.5201 107.362 60.5067 103.949 58.4801C100.536 56.4001 97.8956 53.6267 96.029 50.1601C94.1623 46.6934 93.229 42.8534 93.229 38.6401C93.229 34.2667 94.189 30.3734 96.109 26.9601C98.0823 23.5467 100.722 20.8534 104.029 18.8801C107.336 16.9067 111.069 15.9201 115.229 15.9201C118.696 15.9201 121.762 16.4801 124.429 17.6001C127.096 18.6667 129.336 20.1867 131.149 22.1601C133.016 24.1334 134.429 26.4267 135.389 29.0401C136.349 31.6001 136.829 34.4001 136.829 37.4401C136.829 38.2934 136.776 39.1467 136.669 40.0001C136.616 40.8001 136.482 41.4934 136.269 42.0801H103.549V33.2801H129.469L123.789 37.4401C124.322 35.1467 124.296 33.1201 123.709 31.3601C123.122 29.5467 122.082 28.1334 120.589 27.1201C119.149 26.0534 117.362 25.5201 115.229 25.5201C113.149 25.5201 111.362 26.0267 109.869 27.0401C108.376 28.0534 107.256 29.5467 106.509 31.5201C105.762 33.4934 105.469 35.8934 105.629 38.7201C105.416 41.1734 105.709 43.3334 106.509 45.2001C107.309 47.0667 108.536 48.5334 110.189 49.6001C111.842 50.6134 113.842 51.1201 116.189 51.1201C118.322 51.1201 120.136 50.6934 121.629 49.8401C123.176 48.9867 124.376 47.8134 125.229 46.3201L134.829 50.8801C133.976 53.0134 132.616 54.8801 130.749 56.4801C128.936 58.0801 126.776 59.3334 124.269 60.2401C121.762 61.0934 119.016 61.5201 116.029 61.5201ZM139.095 60.5601V5.62668e-05H151.095V60.5601H139.095ZM176.116 61.5201C171.476 61.5201 167.45 60.5067 164.036 58.4801C160.623 56.4001 157.983 53.6267 156.116 50.1601C154.25 46.6934 153.316 42.8534 153.316 38.6401C153.316 34.2667 154.276 30.3734 156.196 26.9601C158.17 23.5467 160.81 20.8534 164.116 18.8801C167.423 16.9067 171.156 15.9201 175.316 15.9201C178.783 15.9201 181.85 16.4801 184.516 17.6001C187.183 18.6667 189.423 20.1867 191.236 22.1601C193.103 24.1334 194.516 26.4267 195.476 29.0401C196.436 31.6001 196.916 34.4001 196.916 37.4401C196.916 38.2934 196.863 39.1467 196.756 40.0001C196.703 40.8001 196.57 41.4934 196.356 42.0801H163.636V33.2801H189.556L183.876 37.4401C184.41 35.1467 184.383 33.1201 183.796 31.3601C183.21 29.5467 182.17 28.1334 180.676 27.1201C179.236 26.0534 177.45 25.5201 175.316 25.5201C173.236 25.5201 171.45 26.0267 169.956 27.0401C168.463 28.0534 167.343 29.5467 166.596 31.5201C165.85 33.4934 165.556 35.8934 165.716 38.7201C165.503 41.1734 165.796 43.3334 166.596 45.2001C167.396 47.0667 168.623 48.5334 170.276 49.6001C171.93 50.6134 173.93 51.1201 176.276 51.1201C178.41 51.1201 180.223 50.6934 181.716 49.8401C183.263 48.9867 184.463 47.8134 185.316 46.3201L194.916 50.8801C194.063 53.0134 192.703 54.8801 190.836 56.4801C189.023 58.0801 186.863 59.3334 184.356 60.2401C181.85 61.0934 179.103 61.5201 176.116 61.5201Z" fill="#1C1C1C"/>
<path d="M200.063 60.5601V0.960053H212.463V30.8001L209.023 29.6001L232.863 0.960053H248.383L224.783 29.4401L225.503 20.6401L248.863 60.5601H234.383L219.823 35.3601L212.463 44.2401V60.5601H200.063ZM269.422 61.5201C265.102 61.5201 261.155 60.5334 257.582 58.5601C254.062 56.5867 251.235 53.8934 249.102 50.4801C247.022 47.0134 245.982 43.0934 245.982 38.7201C245.982 34.2934 247.022 30.3734 249.102 26.9601C251.235 23.5467 254.062 20.8534 257.582 18.8801C261.155 16.9067 265.102 15.9201 269.422 15.9201C273.742 15.9201 277.662 16.9067 281.182 18.8801C284.702 20.8534 287.502 23.5467 289.582 26.9601C291.715 30.3734 292.782 34.2934 292.782 38.7201C292.782 43.0934 291.715 47.0134 289.582 50.4801C287.502 53.8934 284.702 56.5867 281.182 58.5601C277.662 60.5334 273.742 61.5201 269.422 61.5201ZM269.422 50.7201C271.609 50.7201 273.502 50.2134 275.102 49.2001C276.755 48.1867 278.035 46.7734 278.942 44.9601C279.902 43.1467 280.382 41.0667 280.382 38.7201C280.382 36.3734 279.902 34.3201 278.942 32.5601C278.035 30.7467 276.755 29.3334 275.102 28.3201C273.502 27.2534 271.609 26.7201 269.422 26.7201C267.235 26.7201 265.315 27.2534 263.662 28.3201C262.009 29.3334 260.702 30.7467 259.742 32.5601C258.835 34.3201 258.382 36.3734 258.382 38.7201C258.382 41.0667 258.835 43.1467 259.742 44.9601C260.702 46.7734 262.009 48.1867 263.662 49.2001C265.315 50.2134 267.235 50.7201 269.422 50.7201ZM316.731 61.5201C312.411 61.5201 308.465 60.5334 304.891 58.5601C301.371 56.5867 298.545 53.8934 296.411 50.4801C294.331 47.0134 293.291 43.0934 293.291 38.7201C293.291 34.2934 294.331 30.3734 296.411 26.9601C298.545 23.5467 301.371 20.8534 304.891 18.8801C308.465 16.9067 312.411 15.9201 316.731 15.9201C321.051 15.9201 324.971 16.9067 328.491 18.8801C332.011 20.8534 334.811 23.5467 336.891 26.9601C339.025 30.3734 340.091 34.2934 340.091 38.7201C340.091 43.0934 339.025 47.0134 336.891 50.4801C334.811 53.8934 332.011 56.5867 328.491 58.5601C324.971 60.5334 321.051 61.5201 316.731 61.5201ZM316.731 50.7201C318.918 50.7201 320.811 50.2134 322.411 49.2001C324.065 48.1867 325.345 46.7734 326.251 44.9601C327.211 43.1467 327.691 41.0667 327.691 38.7201C327.691 36.3734 327.211 34.3201 326.251 32.5601C325.345 30.7467 324.065 29.3334 322.411 28.3201C320.811 27.2534 318.918 26.7201 316.731 26.7201C314.545 26.7201 312.625 27.2534 310.971 28.3201C309.318 29.3334 308.011 30.7467 307.051 32.5601C306.145 34.3201 305.691 36.3734 305.691 38.7201C305.691 41.0667 306.145 43.1467 307.051 44.9601C308.011 46.7734 309.318 48.1867 310.971 49.2001C312.625 50.2134 314.545 50.7201 316.731 50.7201ZM342.361 60.5601V5.62668e-05H354.361V38.8001L349.881 37.3601L369.161 16.8801H383.961L368.121 34.4801L383.881 60.5601H370.281L357.081 38.4001L364.041 36.6401L350.681 51.2001L354.361 44.2401V60.5601H342.361Z" fill="#F74627"/>
</svg>
